<svg width="32" height="32" viewBox="0 0 32 32" fill="none" xmlns="http://www.w3.org/2000/svg">
<rect width="32" height="32" rx="16" fill="#FF7B1C"/>
<path fill-rule="evenodd" clip-rule="evenodd" d="M16.3136 13.6966C16.3136 13.0799 16.152 12.5512 15.8299 12.1087C15.2931 11.3881 14.383 11.0188 13.0965 11H8V21.4043H12.7523C13.2882 21.4043 13.7839 21.3588 14.2425 21.2647C14.7011 21.1697 15.0974 20.9965 15.4336 20.7421C15.7326 20.5203 15.9815 20.2471 16.1801 19.9234C16.4942 19.4343 16.6508 18.881 16.6508 18.2642C16.6508 17.6663 16.5133 17.1575 16.2403 16.7397C15.9644 16.321 15.559 16.0151 15.0212 15.821C15.3754 15.6428 15.6433 15.4449 15.8259 15.229C16.152 14.843 16.3136 14.3312 16.3136 13.6966ZM23.4251 12.7799H18.9055V11.4851H23.4251V12.7799ZM19.4323 16.7961C19.5066 16.2952 19.6882 15.8983 19.9762 15.6052C20.2642 15.3122 20.6716 15.1657 21.1934 15.1657C21.675 15.1657 22.0774 15.3033 22.4046 15.5795C22.7277 15.8577 22.9103 16.2616 22.9474 16.7961H19.4323ZM23.0267 13.8669C23.5716 14.1064 24.0201 14.4866 24.3733 15.0053C24.6954 15.4627 24.9021 15.9933 24.9965 16.5962C25.0517 16.9486 25.0737 17.4594 25.0647 18.1237H19.3822C19.4163 18.8948 19.6852 19.4363 20.199 19.7462C20.51 19.9392 20.8843 20.0362 21.3238 20.0362C21.7864 20.0362 22.1647 19.9184 22.4547 19.6838C22.6143 19.5561 22.7548 19.3799 22.8752 19.1542H24.9573C24.9021 19.6096 24.6493 20.0738 24.2017 20.5451C23.5033 21.2925 22.525 21.6667 21.2676 21.6667C20.2291 21.6667 19.3129 21.3519 18.5212 20.7203C17.7255 20.0897 17.3301 19.0621 17.3301 17.6406C17.3301 16.3071 17.6883 15.2845 18.4038 14.5727C19.1213 13.8629 20.0495 13.5056 21.1924 13.5056C21.8717 13.5056 22.4828 13.6263 23.0267 13.8669ZM10.1022 19.5987V16.8239H12.6992C13.1507 16.8278 13.5029 16.8872 13.7538 17.0001C14.2023 17.203 14.4251 17.5742 14.4251 18.1167C14.4251 18.7562 14.1943 19.1878 13.7317 19.4155C13.4778 19.5373 13.1206 19.5987 12.663 19.5987H10.1022ZM10.1022 12.8067V15.1023H12.6671C13.1236 15.1023 13.4959 15.0162 13.7829 14.844C14.0679 14.6717 14.2114 14.3668 14.2114 13.9312C14.2114 13.4452 14.0227 13.1254 13.6454 12.969C13.3183 12.8611 12.9029 12.8067 12.3981 12.8067H10.1022Z" fill="#302F2F"/>
</svg>
