<svg width="31" height="20" viewBox="0 0 31 20" fill="none" xmlns="http://www.w3.org/2000/svg">
<path fill-rule="evenodd" clip-rule="evenodd" d="M15.0684 4.88761C15.0684 3.76978 14.7756 2.81163 14.1918 2.00959C13.2187 0.703357 11.5691 0.0340912 9.23747 0H0V18.8578H8.61363C9.58485 18.8578 10.4833 18.7753 11.3145 18.6049C12.1457 18.4326 12.8641 18.1186 13.4734 17.6575C14.0153 17.2556 14.4664 16.7603 14.8265 16.1736C15.3958 15.2872 15.6795 14.2842 15.6795 13.1664C15.6795 12.0827 15.4303 11.1604 14.9356 10.4032C14.4355 9.64424 13.7007 9.08981 12.7258 8.73813C13.3679 8.41516 13.8535 8.0563 14.1845 7.66515C14.7756 6.96538 15.0684 6.03774 15.0684 4.88761ZM27.9575 3.22617H19.7658V0.879257H27.9575V3.22617ZM20.7207 10.5054C20.8553 9.59751 21.1845 8.878 21.7065 8.3469C22.2285 7.81579 22.9669 7.55024 23.9126 7.55024C24.7857 7.55024 25.515 7.79964 26.1079 8.30025C26.6935 8.80444 27.0245 9.5365 27.0918 10.5054H20.7207ZM27.2358 5.19612C28.2234 5.63033 29.0364 6.31933 29.6766 7.25954C30.2604 8.08849 30.6351 9.05022 30.8061 10.1429C30.9061 10.7817 30.9461 11.7075 30.9297 12.9115H20.6301C20.692 14.3092 21.1794 15.2907 22.1106 15.8523C22.6744 16.2022 23.3528 16.3781 24.1494 16.3781C24.9879 16.3781 25.6735 16.1645 26.1992 15.7393C26.4883 15.5078 26.743 15.1884 26.9612 14.7793H30.7351C30.6351 15.6047 30.1768 16.4462 29.3656 17.3003C28.0998 18.655 26.3265 19.3332 24.0476 19.3332C22.1652 19.3332 20.5046 18.7626 19.0696 17.6179C17.6274 16.4749 16.9108 14.6125 16.9108 12.0359C16.9108 9.61901 17.5601 7.76552 18.8568 6.47544C20.1572 5.18894 21.8396 4.54121 23.9112 4.54121C25.1425 4.54121 26.2501 4.76011 27.2358 5.19612ZM3.80997 15.5851V10.5557H8.51691C9.33535 10.5629 9.97373 10.6706 10.4284 10.8751C11.2414 11.2429 11.6452 11.9158 11.6452 12.8991C11.6452 14.0582 11.2269 14.8405 10.3884 15.2531C9.92827 15.4738 9.28079 15.5851 8.45143 15.5851H3.80997ZM3.80997 3.27454V7.43546H8.45871C9.28624 7.43546 9.961 7.27936 10.4812 6.96716C10.9977 6.65495 11.2578 6.10232 11.2578 5.31283C11.2578 4.43184 10.9158 3.85229 10.232 3.5688C9.63908 3.37322 8.88612 3.27454 7.97128 3.27454H3.80997Z" fill="white"/>
</svg>
