<svg width="147" height="33" viewBox="0 0 147 33" fill="none" xmlns="http://www.w3.org/2000/svg">
<path d="M0 12.8803V10.8377V8.11435L11.234 0.625V5.39095L3.57446 10.4973" fill="white"/>
<path d="M18.8937 10.4973L11.2341 5.39095V0.625L22.4682 8.11435V10.8377V12.8803" fill="white"/>
<path d="M11.234 27.859L0 20.3696V25.1356L11.234 32.6249V27.859Z" fill="white"/>
<path d="M11.2341 27.859L22.4682 20.3696V25.1356L11.2341 32.6249V27.859Z" fill="white"/>
<path d="M0 10.8377V12.8802V20.3696L4.0851 17.6462V15.6036L11.234 20.3696V15.6036L3.57446 10.4972L0 8.11426V10.8377V12.8802V10.8377Z" fill="white"/>
<path d="M22.4682 12.8802V10.8377V8.11426L18.3831 10.8377L11.2341 15.6036V20.3696L18.3831 15.6036V17.6462L22.4682 20.3696V12.8802V10.8377V12.8802Z" fill="white"/>
<path d="M35.394 23.125H32.943V9.825H37.769L41.113 23.125L44.172 9.825H48.941V23.125H46.509V9.939H46.49L43.469 23.125H38.738L35.413 9.863H35.394V23.125ZM59.9914 9.825L64.6654 23.125H61.9484L60.9414 20.161H53.8734L52.8094 23.125H50.1114L54.9184 9.825H57.4644L54.5574 18.033H60.2574L57.4644 9.825H59.9914ZM71.7107 23.125H65.8397V9.825H71.5397C72.5467 9.825 73.4587 9.996 74.2757 10.338C75.0737 10.68 75.7767 11.136 76.3467 11.725C76.9167 12.314 77.3727 13.017 77.6767 13.834C77.9807 14.651 78.1517 15.544 78.1517 16.513C78.1517 17.501 77.9807 18.394 77.6767 19.192C77.3727 20.009 76.9357 20.712 76.3657 21.282C75.7957 21.871 75.1307 22.327 74.3327 22.65C73.5347 22.973 72.6607 23.125 71.7107 23.125ZM68.3477 12.162V20.788H71.4257C72.0907 20.788 72.6797 20.693 73.1927 20.484C73.6867 20.275 74.1237 19.99 74.4657 19.61C74.8077 19.23 75.0547 18.793 75.2447 18.261C75.4157 17.729 75.5107 17.159 75.5107 16.513C75.5107 15.183 75.1307 14.119 74.4087 13.34C73.6677 12.561 72.6227 12.162 71.2547 12.162H68.3477ZM84.1793 23.125L79.4863 9.825H82.1653L86.8583 23.068H86.8963L91.4753 9.825H94.1733L89.5563 23.125H84.1793ZM95.6029 9.825H98.1109V23.125H95.6029V9.825ZM99.7332 13.777C99.7332 12.96 99.9042 12.295 100.265 11.782C100.607 11.269 101.063 10.87 101.633 10.566C102.203 10.281 102.83 10.091 103.533 9.977C104.217 9.882 104.92 9.825 105.604 9.825C106.326 9.825 107.029 9.882 107.732 9.958C108.435 10.034 109.062 10.224 109.632 10.49C110.183 10.775 110.639 11.174 110.981 11.687C111.323 12.219 111.494 12.903 111.494 13.777H109.081C109.081 13.34 108.967 12.998 108.739 12.751C108.511 12.523 108.207 12.333 107.865 12.219C107.523 12.105 107.143 12.048 106.744 12.029C106.326 12.01 105.946 11.991 105.585 11.991C105.243 11.991 104.882 12.01 104.483 12.029C104.084 12.048 103.723 12.105 103.381 12.219C103.039 12.333 102.735 12.485 102.507 12.713C102.279 12.941 102.165 13.264 102.165 13.682C102.165 14.613 102.697 15.126 103.799 15.24L108.283 15.639C109.328 15.734 110.164 16.076 110.772 16.665C111.38 17.273 111.703 18.071 111.703 19.097C111.703 20.009 111.513 20.712 111.133 21.244C110.753 21.776 110.259 22.194 109.651 22.46C109.043 22.745 108.359 22.935 107.618 23.011C106.858 23.087 106.136 23.125 105.414 23.125C104.711 23.125 104.008 23.087 103.324 22.992C102.621 22.897 101.994 22.707 101.424 22.422C100.854 22.137 100.398 21.738 100.056 21.225C99.7142 20.712 99.5432 20.028 99.5432 19.173H101.956C101.956 19.61 102.07 19.952 102.298 20.18C102.526 20.427 102.811 20.598 103.153 20.712C103.495 20.826 103.875 20.902 104.293 20.921C104.692 20.959 105.072 20.959 105.433 20.959C105.775 20.959 106.174 20.959 106.63 20.94C107.067 20.94 107.485 20.883 107.884 20.769C108.264 20.655 108.606 20.503 108.872 20.275C109.138 20.047 109.29 19.724 109.29 19.306C109.29 18.831 109.138 18.489 108.872 18.299C108.606 18.109 108.226 17.976 107.751 17.9L103.248 17.482C102.146 17.387 101.291 17.007 100.664 16.342C100.037 15.696 99.7332 14.841 99.7332 13.777ZM113.136 9.825H115.644V23.125H113.136V9.825ZM131.346 16.475C131.346 18.641 130.719 20.294 129.503 21.434C128.268 22.574 126.501 23.125 124.202 23.125C121.865 23.125 120.098 22.574 118.882 21.434C117.666 20.294 117.077 18.641 117.077 16.475C117.077 14.29 117.685 12.637 118.939 11.516C120.174 10.395 121.941 9.825 124.221 9.825C126.501 9.825 128.249 10.376 129.484 11.478C130.719 12.58 131.346 14.233 131.346 16.475ZM128.8 16.437C128.8 15.107 128.401 14.081 127.622 13.321C126.843 12.561 125.722 12.181 124.24 12.181C122.739 12.181 121.599 12.561 120.801 13.321C120.003 14.081 119.623 15.145 119.623 16.475C119.623 17.862 120.003 18.926 120.801 19.667C121.599 20.408 122.739 20.769 124.24 20.769C125.779 20.769 126.919 20.389 127.679 19.61C128.42 18.831 128.8 17.767 128.8 16.437ZM145.477 9.825V23.125H140.48L135.141 9.825H137.649L143.007 23.125V9.825H145.477ZM132.671 23.125V9.825H135.141V23.125H132.671Z" fill="white"/>
</svg>
